<svg style="position: absolute; width: 0; height: 0; overflow: hidden;" version="1.1" xmlns="http://www.w3.org/2000/svg" xmlns:xlink="http://www.w3.org/1999/xlink">
<defs>
<symbol id="ionion-logo-dribbble" viewBox="0 0 24 32">
<title>ion-logo-dribbble</title>
<path d="M12 4c6.625 0 12 5.375 12 12s-5.375 12-12 12-12-5.375-12-12 5.375-12 12-12zM19.625 9.5c-1.063 1.563-2.938 2.938-5.313 4 0.313 0.625 0.563 1.25 0.813 1.938 2.063-0.188 4.688-0.25 6.875-0.125-0.125-2.188-1-4.25-2.375-5.813zM12 6c-0.875 0-1.625 0.125-2.438 0.313 1.438 1.438 2.688 3.313 3.875 5.438 2.125-0.875 3.875-2.063 4.938-3.438-1.75-1.438-3.938-2.313-6.375-2.313zM7.5 7.125c-2.563 1.313-4.438 3.625-5.188 6.438h1.563c2.75 0 5.313-0.375 7.563-1.063-1.188-2.125-2.5-3.938-3.938-5.375zM2 15.5v0.5c0 2.5 0.938 4.875 2.5 6.625 1.5-2.813 4.188-5.188 7.625-6.625 0.25-0.125 0.5-0.188 0.875-0.25-0.188-0.5-0.375-1-0.625-1.5-2.5 0.813-5.5 1.25-8.625 1.313-0.563 0-1.188-0.063-1.75-0.063zM12 26c1.25 0 2.438-0.188 3.563-0.625-0.188-1.563-0.5-3.313-0.938-4.938-0.25-1.063-0.625-2.063-1-3.063-0.438 0.125-0.813 0.25-1.063 0.375-3 1.375-5.375 3.5-6.688 6.125 1.688 1.313 3.813 2.125 6.125 2.125zM17.375 24.375c2.5-1.625 4.25-4.188 4.563-7.25-1.875-0.125-4.25-0.188-6.188 0 0.25 0.75 0.563 1.563 0.75 2.375 0.438 1.688 0.688 3.25 0.875 4.875z"></path>
</symbol>
<symbol id="ionion-logo-facebook" viewBox="0 0 24 32">
<title>ion-logo-facebook</title>
<path d="M22.688 4c0.75 0 1.313 0.563 1.313 1.313v21.375c0 0.75-0.563 1.313-1.313 1.313h-6.688v-9.5h3.125l0.438-3.5h-3.563v-2.25c0-1.063 0.313-1.75 1.813-1.75h2.188v-3.25c-0.313-0.063-1.75-0.125-3.063-0.125-2.75 0-4.938 1.688-4.938 4.813v2.563h-2.875v3.5h2.875v9.5h-10.688c-0.75 0-1.313-0.563-1.313-1.313v-21.375c0-0.75 0.563-1.313 1.313-1.313h21.375z"></path>
</symbol>
<symbol id="ionion-logo-github" viewBox="0 0 28 32">
<title>ion-logo-github</title>
<path d="M14 2c7.75 0 14 6.438 14 14.375 0 6.313-4 11.75-9.563 13.625h-0.25c-0.5 0-0.75-0.438-0.75-0.75 0-0.5 0.063-1.938 0.063-3.875 0-1.313-0.5-2.25-1-2.688 3.125-0.375 6.438-1.563 6.438-7.063 0-1.563-0.563-2.875-1.438-3.875 0.125-0.375 0.625-1.813-0.125-3.813h-0.313c-0.5 0-1.688 0.188-3.563 1.5-1.125-0.313-2.313-0.5-3.5-0.5s-2.375 0.188-3.5 0.5c-1.875-1.313-3.063-1.5-3.563-1.5h-0.313c-0.75 2-0.25 3.438-0.125 3.813-0.875 1-1.438 2.313-1.438 3.875 0 5.5 3.25 6.688 6.375 7.063-0.375 0.375-0.75 1-0.875 1.938-0.375 0.188-1 0.375-1.625 0.375-0.813 0-1.75-0.313-2.438-1.563 0 0-0.813-1.375-2.188-1.5v0c-0.125 0-1.313 0-0.063 0.875 0 0 0.938 0.5 1.563 2.125 0 0 0.625 2.063 3.313 2.063 0.438 0 0.875 0 1.375-0.125v2.438c0 0.313-0.188 0.688-0.688 0.688h-0.25c-5.563-1.875-9.563-7.25-9.563-13.625 0-7.938 6.25-14.375 14-14.375z"></path>
</symbol>
<symbol id="ionion-logo-twitter" viewBox="0 0 30 32">
<title>ion-logo-twitter</title>
<path d="M29.5 6.875c-0.813 1.25-1.813 2.25-3 3.125v0.75c0 8-6.125 17.25-17.25 17.25-3.438 0-6.563-1-9.25-2.75 0.5 0.063 0.938 0.125 1.438 0.125 2.813 0 5.438-1 7.5-2.625-2.625-0.063-4.875-1.813-5.625-4.188 0.375 0.063 0.75 0.125 1.125 0.125 0.563 0 1.125-0.125 1.625-0.25-2.75-0.563-4.875-3-4.875-5.938v-0.063c0.813 0.438 1.75 0.75 2.75 0.75-1.625-1.063-2.688-2.938-2.688-5.063 0-1.125 0.313-2.125 0.813-3 3 3.688 7.438 6.063 12.438 6.313-0.125-0.438-0.125-0.875-0.125-1.375 0-3.375 2.688-6.063 6.063-6.063 1.75 0 3.25 0.75 4.375 1.938 1.375-0.25 2.688-0.813 3.875-1.5-0.438 1.438-1.438 2.625-2.688 3.375 1.25-0.125 2.438-0.438 3.5-0.938z"></path>
</symbol>
</defs>
</svg>
